<?xml version="1.0" standalone="no"?>
<!DOCTYPE svg PUBLIC "-//W3C//DTD SVG 20010904//EN"
 "http://www.w3.org/TR/2001/REC-SVG-20010904/DTD/svg10.dtd">
<svg version="1.0" xmlns="http://www.w3.org/2000/svg"
 width="1000.000000pt" height="1000.000000pt" viewBox="0 0 1000.000000 1000.000000"
 preserveAspectRatio="xMidYMid meet">

<g transform="translate(0.000000,1000.000000) scale(0.100000,-0.100000)"
fill="#000000" stroke="none">
<path d="M4955 9980 c-69 -14 -147 -29 -235 -45 -101 -19 -132 -25 -315 -60
-77 -15 -160 -31 -185 -35 -40 -7 -87 -16 -270 -51 -25 -4 -67 -12 -95 -18
-27 -5 -90 -17 -140 -26 -49 -10 -108 -21 -130 -25 -65 -13 -144 -28 -235 -45
-47 -9 -107 -20 -135 -26 -27 -5 -88 -16 -135 -24 -47 -8 -94 -16 -105 -19
-36 -8 -170 -34 -445 -86 -30 -6 -75 -15 -100 -20 -25 -6 -74 -14 -110 -20
-36 -6 -85 -14 -110 -19 -25 -5 -72 -14 -105 -20 -33 -6 -82 -16 -110 -21 -27
-6 -133 -26 -235 -45 -102 -19 -207 -40 -235 -45 -27 -5 -88 -17 -135 -25 -47
-9 -105 -20 -130 -25 -25 -5 -85 -16 -135 -25 -49 -9 -112 -20 -140 -26 -27
-5 -75 -14 -105 -20 -30 -6 -73 -15 -95 -20 -22 -5 -69 -14 -105 -19 -36 -6
-85 -14 -110 -19 -138 -27 -166 -33 -173 -38 -7 -4 164 -93 178 -93 3 0 96
-43 285 -132 274 -129 380 -178 384 -178 2 0 53 -23 112 -51 60 -28 141 -66
179 -84 39 -18 113 -53 165 -78 52 -24 129 -59 170 -77 41 -18 130 -59 197
-91 67 -32 144 -68 170 -80 26 -12 94 -43 151 -70 57 -27 105 -49 107 -49 4 0
143 -65 270 -125 50 -24 119 -56 155 -73 36 -16 90 -41 120 -54 30 -14 118
-55 195 -91 77 -35 165 -76 195 -90 30 -13 93 -43 140 -65 133 -63 262 -122
265 -122 2 0 61 -27 132 -60 70 -34 137 -65 148 -70 11 -5 79 -37 150 -71 72
-33 171 -79 220 -101 50 -22 122 -55 160 -73 39 -18 115 -54 170 -80 55 -26
123 -58 152 -72 52 -25 52 -25 80 -6 15 11 53 30 83 42 56 24 98 43 230 104
41 19 98 45 125 57 28 12 113 51 190 87 77 35 149 68 160 73 35 16 178 81 240
110 33 15 83 38 110 50 77 35 153 69 235 107 90 42 174 80 215 98 82 36 149
67 235 108 119 56 209 97 214 97 3 0 144 65 261 120 80 37 197 90 201 90 2 0
45 20 96 44 51 24 116 54 143 66 28 12 92 42 144 66 51 24 95 44 96 44 2 0 41
17 87 39 45 21 106 49 133 61 28 12 92 42 143 66 51 24 94 44 96 44 5 0 134
59 221 100 33 16 87 41 120 55 33 15 85 38 115 52 30 14 71 32 90 40 19 9 80
37 135 63 55 26 116 54 135 63 19 8 69 30 110 49 41 19 105 47 142 63 37 17
68 33 68 36 0 8 -24 14 -135 35 -44 9 -101 20 -127 25 -52 10 -118 23 -188 37
-25 5 -85 17 -135 27 -49 9 -109 21 -132 26 -112 24 -144 30 -223 44 -86 15
-157 29 -240 46 -25 6 -65 14 -90 18 -25 5 -106 21 -180 36 -74 15 -157 32
-185 37 -27 5 -70 14 -95 19 -25 6 -72 14 -105 20 -33 5 -94 17 -135 25 -106
23 -152 33 -265 54 -27 6 -97 20 -155 31 -58 12 -125 25 -150 30 -25 4 -67 13
-95 19 -65 13 -130 26 -235 45 -47 8 -106 20 -132 25 -27 6 -67 14 -90 19 -24
5 -81 16 -128 25 -167 32 -196 38 -240 47 -25 6 -65 14 -90 19 -143 28 -221
43 -265 50 -27 5 -72 14 -100 20 -27 6 -70 15 -95 19 -25 5 -106 21 -180 36
-210 42 -213 43 -255 50 -22 4 -51 10 -65 15 -40 14 -112 18 -155 10z"/>
<path d="M10 8660 c0 -10 5 -52 10 -92 6 -40 17 -161 25 -268 9 -107 22 -267
30 -355 34 -359 62 -684 99 -1130 9 -104 21 -233 26 -285 6 -52 15 -149 20
-215 6 -66 14 -169 20 -230 10 -106 29 -319 50 -550 6 -60 19 -221 30 -356 11
-136 22 -264 25 -285 3 -22 12 -124 21 -229 8 -104 21 -260 29 -345 41 -440
87 -962 140 -1592 7 -92 16 -172 20 -178 5 -8 106 -72 480 -303 72 -44 183
-113 248 -153 65 -41 122 -74 127 -74 4 0 10 -3 12 -8 2 -4 30 -23 63 -43 33
-20 263 -161 510 -314 248 -153 495 -306 550 -340 314 -193 720 -444 785 -485
41 -26 221 -137 400 -247 179 -110 457 -281 618 -381 161 -100 296 -182 299
-182 7 0 -7 6387 -14 6406 -3 8 -9 14 -13 14 -4 0 -165 77 -356 171 -192 94
-425 208 -519 254 -93 45 -309 151 -480 235 -170 84 -395 194 -500 245 -401
195 -649 317 -895 437 -284 140 -605 297 -935 458 -257 126 -598 292 -775 379
-68 34 -130 61 -137 61 -7 0 -13 -9 -13 -20z"/>
<path d="M9930 8629 c-8 -5 -105 -52 -215 -105 -110 -53 -270 -130 -355 -172
-85 -41 -209 -101 -275 -132 -66 -32 -190 -91 -275 -132 -85 -42 -213 -104
-285 -138 -71 -34 -200 -96 -285 -138 -85 -41 -218 -105 -295 -142 -77 -37
-212 -102 -300 -145 -88 -42 -218 -105 -290 -140 -71 -34 -197 -95 -280 -135
-82 -40 -208 -101 -280 -135 -225 -109 -414 -200 -620 -300 -110 -54 -240
-117 -290 -140 -49 -24 -179 -86 -289 -139 -109 -53 -202 -96 -207 -96 -4 0
-13 -9 -19 -19 -13 -26 -14 -6387 0 -6396 5 -3 33 10 62 29 29 18 177 109 328
202 288 175 669 409 780 477 36 22 126 77 200 122 74 45 196 119 270 165 74
46 194 119 265 163 72 44 180 110 240 147 61 37 241 147 400 245 160 98 380
233 490 300 110 67 272 166 360 220 88 54 210 128 270 165 241 147 410 252
414 255 5 5 18 133 36 345 16 199 54 650 85 1005 11 132 27 317 35 410 34 367
68 764 110 1270 8 99 17 200 20 225 3 25 12 124 20 220 38 460 45 538 50 580
6 51 26 279 55 640 10 135 22 265 25 290 3 25 12 128 21 230 8 102 21 257 29
345 25 262 44 498 45 533 0 34 -18 42 -50 21z"/>
</g>
</svg>
